<svg xmlns="http://www.w3.org/2000/svg" viewBox="0 0 512 512" fill="none">
  <defs>
    <linearGradient id="bg" x1="68" y1="36" x2="444" y2="476" gradientUnits="userSpaceOnUse">
      <stop offset="0" stop-color="#102237" />
      <stop offset="1" stop-color="#060f1c" />
    </linearGradient>
    <linearGradient id="panel" x1="124" y1="126" x2="392" y2="356" gradientUnits="userSpaceOnUse">
      <stop offset="0" stop-color="#133349" />
      <stop offset="1" stop-color="#0b2435" />
    </linearGradient>
    <linearGradient id="accent" x1="172" y1="170" x2="342" y2="314" gradientUnits="userSpaceOnUse">
      <stop offset="0" stop-color="#62f4e3" />
      <stop offset="1" stop-color="#1dc9ff" />
    </linearGradient>
  </defs>

  <rect x="24" y="24" width="464" height="464" rx="108" fill="url(#bg)" />
  <rect x="24" y="24" width="464" height="464" rx="108" stroke="#223a54" stroke-width="6" />

  <rect x="112" y="122" width="288" height="230" rx="76" fill="url(#panel)" />
  <rect x="112" y="122" width="288" height="230" rx="76" stroke="#2b536f" stroke-width="8" />
  <path d="M214 346L181 416L260 364" fill="url(#panel)" stroke="#2b536f" stroke-width="8" stroke-linejoin="round" />

  <path d="M160 182C187 157 221 144 256 144C291 144 325 157 352 182" stroke="#46e9d3" stroke-opacity="0.3" stroke-width="10" stroke-linecap="round" />
  <path d="M182 205C204 186 230 176 256 176C282 176 308 186 330 205" stroke="#46e9d3" stroke-opacity="0.45" stroke-width="8" stroke-linecap="round" />

  <rect x="170" y="236" width="26" height="78" rx="13" fill="url(#accent)" />
  <rect x="208" y="202" width="26" height="112" rx="13" fill="url(#accent)" />
  <rect x="246" y="166" width="26" height="148" rx="13" fill="url(#accent)" />
  <rect x="284" y="202" width="26" height="112" rx="13" fill="url(#accent)" />
  <rect x="322" y="236" width="26" height="78" rx="13" fill="url(#accent)" />

  <path d="M356 118L363 135L380 142L363 149L356 166L349 149L332 142L349 135Z" fill="#74f7e8" />
</svg>
